<svg width="114" height="107" viewBox="0 0 114 107" fill="none" xmlns="http://www.w3.org/2000/svg">
<g id="Vector" filter="url(#filter0_d_25_713)">
<path d="M95.98 43.4001C99.2 43.4001 101.8 40.8001 101.8 37.5801C101.8 37.2001 101.76 36.8401 101.68 36.4601C100.62 32.2601 92.44 5.00012 57 5.00012C21.56 5.00012 13.38 32.2601 12.32 36.4601C12.22 36.8401 12.2 37.2001 12.2 37.5801C12.2 40.8001 14.8 43.4001 18.02 43.4001H95.98ZM79.4 24.2001C79.4 23.3514 79.7371 22.5375 80.3373 21.9374C80.9374 21.3373 81.7513 21.0001 82.6 21.0001C83.4487 21.0001 84.2626 21.3373 84.8627 21.9374C85.4629 22.5375 85.8 23.3514 85.8 24.2001C85.8 25.0488 85.4629 25.8627 84.8627 26.4629C84.2626 27.063 83.4487 27.4001 82.6 27.4001C81.7513 27.4001 80.9374 27.063 80.3373 26.4629C79.7371 25.8627 79.4 25.0488 79.4 24.2001ZM31.4 27.4001C30.5513 27.4001 29.7374 27.063 29.1373 26.4629C28.5371 25.8627 28.2 25.0488 28.2 24.2001C28.2 23.3514 28.5371 22.5375 29.1373 21.9374C29.7374 21.3373 30.5513 21.0001 31.4 21.0001C32.2487 21.0001 33.0626 21.3373 33.6627 21.9374C34.2629 22.5375 34.6 23.3514 34.6 24.2001C34.6 25.0488 34.2629 25.8627 33.6627 26.4629C33.0626 27.063 32.2487 27.4001 31.4 27.4001ZM53.8 17.8001C53.8 16.9514 54.1371 16.1375 54.7373 15.5374C55.3374 14.9373 56.1513 14.6001 57 14.6001C57.8487 14.6001 58.6626 14.9373 59.2627 15.5374C59.8629 16.1375 60.2 16.9514 60.2 17.8001C60.2 18.6488 59.8629 19.4627 59.2627 20.0629C58.6626 20.663 57.8487 21.0001 57 21.0001C56.1513 21.0001 55.3374 20.663 54.7373 20.0629C54.1371 19.4627 53.8 18.6488 53.8 17.8001ZM105 59.4001C105 54.1001 100.7 49.8001 95.4 49.8001H18.6C13.3 49.8001 9 54.1001 9 59.4001C9 64.7001 13.3 69.0001 18.6 69.0001H95.4C100.7 69.0001 105 64.7001 105 59.4001ZM101.8 78.6001C101.8 76.8401 100.36 75.4001 98.6 75.4001H15.4C13.64 75.4001 12.2 76.8401 12.2 78.6001V81.8001C12.2 88.8601 17.94 94.6001 25 94.6001H89C96.06 94.6001 101.8 88.8601 101.8 81.8001V78.6001Z" fill="#FD8D14"/>
</g>
<defs>
<filter id="filter0_d_25_713" x="0.968627" y="0.984436" width="112.063" height="105.663" filterUnits="userSpaceOnUse" color-interpolation-filters="sRGB">
<feFlood flood-opacity="0" result="BackgroundImageFix"/>
<feColorMatrix in="SourceAlpha" type="matrix" values="0 0 0 0 0 0 0 0 0 0 0 0 0 0 0 0 0 0 127 0" result="hardAlpha"/>
<feOffset dy="4.01569"/>
<feGaussianBlur stdDeviation="4.01569"/>
<feComposite in2="hardAlpha" operator="out"/>
<feColorMatrix type="matrix" values="0 0 0 0 0 0 0 0 0 0 0 0 0 0 0 0 0 0 0.25 0"/>
<feBlend mode="normal" in2="BackgroundImageFix" result="effect1_dropShadow_25_713"/>
<feBlend mode="normal" in="SourceGraphic" in2="effect1_dropShadow_25_713" result="shape"/>
</filter>
</defs>
</svg>
